<svg width="101" height="101" viewBox="0 0 101 101" fill="none" xmlns="http://www.w3.org/2000/svg">
<path d="M58.9166 8.41663H25.2499C23.0177 8.41663 20.8769 9.30338 19.2984 10.8818C17.72 12.4602 16.8333 14.6011 16.8333 16.8333V84.1666C16.8333 86.3989 17.72 88.5397 19.2984 90.1181C20.8769 91.6965 23.0177 92.5833 25.2499 92.5833H75.7499C77.9822 92.5833 80.123 91.6965 81.7014 90.1181C83.2798 88.5397 84.1666 86.3989 84.1666 84.1666V33.6666L58.9166 8.41663Z" stroke="black" stroke-width="2" stroke-linecap="round" stroke-linejoin="round"/>
<path d="M58.9167 8.41663V33.6666H84.1667" stroke="black" stroke-width="2" stroke-linecap="round" stroke-linejoin="round"/>
<path d="M67.3334 54.7084H33.6667" stroke="black" stroke-width="2" stroke-linecap="round" stroke-linejoin="round"/>
<path d="M67.3334 71.5416H33.6667" stroke="black" stroke-width="2" stroke-linecap="round" stroke-linejoin="round"/>
<path d="M42.0834 37.875H37.8751H33.6667" stroke="black" stroke-width="2" stroke-linecap="round" stroke-linejoin="round"/>
</svg>
