<svg width="101" height="102" viewBox="0 0 101 102" fill="none" xmlns="http://www.w3.org/2000/svg">
<path d="M67.3334 68L50.5001 51L33.6667 68" stroke="black" stroke-width="2" stroke-linecap="round" stroke-linejoin="round"/>
<path d="M50.5 51V89.25" stroke="black" stroke-width="2" stroke-linecap="round" stroke-linejoin="round"/>
<path d="M85.8078 78.1576C89.9124 75.8977 93.1549 72.3218 95.0235 67.9942C96.8922 63.6666 97.2806 58.8338 96.1275 54.2585C94.9744 49.6832 92.3454 45.626 88.6555 42.7272C84.9655 39.8284 80.4248 38.2532 75.7499 38.2501H70.4474C69.1736 33.2743 66.7994 28.655 63.5034 24.7393C60.2074 20.8236 56.0753 17.7134 51.4177 15.6426C46.7602 13.5719 41.6984 12.5943 36.6129 12.7836C31.5274 12.9728 26.5506 14.3238 22.0565 16.7351C17.5625 19.1464 13.6682 22.5552 10.6664 26.7053C7.66467 30.8553 5.63355 35.6386 4.72577 40.6955C3.81799 45.7524 4.05717 50.9513 5.42533 55.9014C6.7935 60.8515 9.25504 65.424 12.6249 69.275" stroke="black" stroke-width="2" stroke-linecap="round" stroke-linejoin="round"/>
<path d="M67.3334 68L50.5001 51L33.6667 68" stroke="black" stroke-width="2" stroke-linecap="round" stroke-linejoin="round"/>
</svg>
